<svg xmlns="http://www.w3.org/2000/svg" xmlns:xlink="http://www.w3.org/1999/xlink" width="1863"
    height="723"><g transform="translate(361.5 -58.5)"><path d="M340 266a6 6 0 0 1 6-6h608a6 6 0 0 1 6 6v284.3a6 6 0 0 1-6 6H346a6 6 0 0 1-6-6z" stroke="#5e5e5e" stroke-width="3" fill="#cfe4ff"/><use xlink:href="#a" transform="matrix(1,0,0,1,352,272) translate(94.04166666666669 151.99652777777777)"/><path d="M1180 326a6 6 0 0 1 6-6h288a6 6 0 0 1 6 6v68a6 6 0 0 1-6 6h-288a6 6 0 0 1-6-6z" stroke="#5e5e5e" stroke-width="3" fill="#e3fae3"/><use xlink:href="#b" transform="matrix(1,0,0,1,1192,332) translate(57.650607638888886 34.61631944444444)"/><path d="M1180 446a6 6 0 0 1 6-6h288a6 6 0 0 1 6 6v68a6 6 0 0 1-6 6h-288a6 6 0 0 1-6-6z" stroke="#5e5e5e" stroke-width="3" fill="#e3fae3"/><use xlink:href="#c" transform="matrix(1,0,0,1,1192,452) translate(51.00455729166666 34.61631944444444)"/><path d="M1180 566a6 6 0 0 1 6-6h288a6 6 0 0 1 6 6v68a6 6 0 0 1-6 6h-288a6 6 0 0 1-6-6z" stroke="#5e5e5e" stroke-width="3" fill="#e3fae3"/><use xlink:href="#d" transform="matrix(1,0,0,1,1192,572) translate(51.76410590277777 34.61631944444444)"/><path d="M1180 686a6 6 0 0 1 6-6h288a6 6 0 0 1 6 6v68a6 6 0 0 1-6 6h-288a6 6 0 0 1-6-6z" stroke="#5e5e5e" stroke-width="3" fill="#e3fae3"/><use xlink:href="#e" transform="matrix(1,0,0,1,1192,692) translate(65.76150173611111 34.61631944444444)"/><path d="M1180 206a6 6 0 0 1 6-6h288a6 6 0 0 1 6 6v68a6 6 0 0 1-6 6h-288a6 6 0 0 1-6-6z" stroke="#5e5e5e" stroke-width="3" fill="#e3fae3"/><use xlink:href="#f" transform="matrix(1,0,0,1,1192,212) translate(46.65885416666666 34.61631944444444)"/><path d="M1180 86a6 6 0 0 1 6-6h288a6 6 0 0 1 6 6v68a6 6 0 0 1-6 6h-288a6 6 0 0 1-6-6z" stroke="#5e5e5e" stroke-width="3" fill="#e3fae3"/><use xlink:href="#g" transform="matrix(1,0,0,1,1192,92) translate(62.880642361111114 34.61631944444444)"/><path d="M962.5 408.15H1064a6 6 0 0 0 6-6V126a6 6 0 0 1 6-6h84" stroke="#5e5e5e" stroke-width="2" fill="none"/><path d="M962.53 409.15h-1.03v-2h1.03z" stroke="#5e5e5e" stroke-width=".05" fill="#5e5e5e"/><path d="M1175.26 120l-14.26 4.64v-9.28z" stroke="#5e5e5e" stroke-width="2" fill="#5e5e5e"/><path d="M962.5 408.15H1064a6 6 0 0 0 6-6V246a6 6 0 0 1 6-6h84" stroke="#5e5e5e" stroke-width="2" fill="none"/><path d="M962.53 409.15h-1.03v-2h1.03z" stroke="#5e5e5e" stroke-width=".05" fill="#5e5e5e"/><path d="M1175.26 240l-14.26 4.63v-9.26z" stroke="#5e5e5e" stroke-width="2" fill="#5e5e5e"/><path d="M962.5 408.15H1064a6 6 0 0 0 6-6V366a6 6 0 0 1 6-6h84" stroke="#5e5e5e" stroke-width="2" fill="none"/><path d="M962.53 409.15h-1.03v-2h1.03z" stroke="#5e5e5e" stroke-width=".05" fill="#5e5e5e"/><path d="M1175.26 360l-14.26 4.63v-9.26z" stroke="#5e5e5e" stroke-width="2" fill="#5e5e5e"/><path d="M962.5 408.15H1064a6 6 0 0 1 6 6V474a6 6 0 0 0 6 6h84" stroke="#5e5e5e" stroke-width="2" fill="none"/><path d="M962.53 409.15h-1.03v-2h1.03z" stroke="#5e5e5e" stroke-width=".05" fill="#5e5e5e"/><path d="M1175.26 480l-14.26 4.63v-9.26z" stroke="#5e5e5e" stroke-width="2" fill="#5e5e5e"/><path d="M962.5 408.15H1064a6 6 0 0 1 6 6V594a6 6 0 0 0 6 6h84" stroke="#5e5e5e" stroke-width="2" fill="none"/><path d="M962.53 409.15h-1.03v-2h1.03z" stroke="#5e5e5e" stroke-width=".05" fill="#5e5e5e"/><path d="M1175.26 600l-14.26 4.63v-9.26z" stroke="#5e5e5e" stroke-width="2" fill="#5e5e5e"/><path d="M962.5 408.15H1064a6 6 0 0 1 6 6V714a6 6 0 0 0 6 6h84" stroke="#5e5e5e" stroke-width="2" fill="none"/><path d="M962.53 409.15h-1.03v-2h1.03z" stroke="#5e5e5e" stroke-width=".05" fill="#5e5e5e"/><path d="M1175.26 720l-14.26 4.63v-9.26z" stroke="#5e5e5e" stroke-width="2" fill="#5e5e5e"/><path d="M-340 330.08a6 6 0 0 1 6-6h468a6 6 0 0 1 6 6v156.15a6 6 0 0 1-6 6h-468a6 6 0 0 1-6-6z" stroke="#5e5e5e" stroke-width="3" fill="#fcfcca"/><use xlink:href="#h" transform="matrix(1,0,0,1,-328,336.07754397684255) translate(135.78645833333334 83.64583333333333)"/><path d="M142.5 408.15H320" stroke="#5e5e5e" stroke-width="2" fill="none"/><path d="M142.53 409.15h-1.03v-2h1.03z" stroke="#5e5e5e" stroke-width=".05" fill="#5e5e5e"/><path d="M335.26 408.15L321 412.8v-9.28z" stroke="#5e5e5e" stroke-width="2" fill="#5e5e5e"/><defs><path fill="#333" d="M430-241h637V0H130v-1456h300v1215" id="i"/><path fill="#333" d="M416 0H126v-1082h290V0zM271-1212c-92 0-162-61-162-150s68-149 162-149c93 0 162 60 162 149s-70 150-162 150" id="j"/><path fill="#333" d="M663-1102c295 0 423 246 423 571 0 313-131 551-421 551-117 0-211-45-281-135L371 0H111v-1536h289v551c67-78 154-117 263-117zm-71 889c164 0 209-139 205-339-3-189-44-315-207-315-92 0-155 38-190 113v427c35 76 99 114 192 114" id="k"/><path fill="#333" d="M719-811c-143-24-279 1-319 103V0H111v-1082h273l8 129c74-124 180-175 331-136" id="l"/><path fill="#333" d="M552-1102c254-4 435 134 435 383v469c1 103 15 180 43 233V0H738c-13-26-23-58-29-97C639-19 548 20 436 20 238 20 64-113 68-304c5-258 212-357 496-357h133c11-137-29-227-160-227-90 0-156 45-156 131H92c15-231 213-342 460-345zM357-325c0 76 61 124 142 124 88 0 168-45 198-105v-186H589c-152 2-232 51-232 167" id="m"/><path fill="#333" d="M515-409l200-673h310L590 168c-66 202-236 321-472 250V199c127 7 198-15 230-107l34-89L3-1082h311" id="n"/><path fill="#333" d="M687-225c189-1 272-84 286-260h300c-19 311-251 505-586 505C296 20 86-277 86-686c0-466 174-782 605-790 340-6 557 198 584 514H975c-15-183-92-268-284-268-100 0-173 38-225 108-63 84-76 264-76 443 0 157 24 272 72 345s122 109 225 109" id="o"/><path fill="#333" d="M579 20C257 20 58-214 66-551c8-331 182-551 511-551 324 0 514 231 514 572 0 319-198 550-512 550zm-2-888c-169 0-222 141-222 338 0 181 61 317 224 317 170 0 223-137 223-338 0-178-64-317-225-317" id="p"/><path fill="#333" d="M741-689c-2-124-40-177-163-178-82 0-141 34-178 102V0H111v-1082h271l9 121c77-94 180-141 311-141 139 0 235 55 287 165 76-110 184-165 325-165 249 0 348 151 348 411V0h-290v-690c-2-123-39-176-163-177-87 0-147 41-180 124l1 743H741v-689" id="q"/><path fill="#333" d="M663-1102c295 0 422 250 422 571 0 300-141 549-420 551-109 0-198-38-265-114v510H111v-1498h268l10 106c70-84 161-126 274-126zm133 550c0-175-53-315-209-315-91 0-153 35-187 104v443c35 71 98 107 189 107 138 0 207-113 207-339" id="r"/><path fill="#333" d="M750-692c-1-124-48-174-173-175-81 0-142 35-183 104V0H105v-1082h272l9 125c77-97 181-145 311-145 244 0 342 151 342 403V0H750v-692" id="s"/><path fill="#333" d="M1031-175C952-60 797 20 609 20 287 20 60-206 72-543c12-330 180-559 505-559 309 0 482 214 477 537v118H365c15 134 115 234 263 234 111 0 198-40 261-121zM770-644c5-139-62-226-194-224-130 1-191 97-208 224h402" id="t"/><path fill="#333" d="M457-330c2 83 25 111 111 112 32 0 60-2 85-7V-6c-57 17-115 26-175 26-203 0-310-102-310-307v-583H10v-212h158v-266h289v266h185v212H457v540" id="u"/><g id="a"><use transform="matrix(0.023871527777777776,0,0,0.023871527777777776,0,0)" xlink:href="#i"/><use transform="matrix(0.023871527777777776,0,0,0.023871527777777776,26.473524305555554,0)" xlink:href="#j"/><use transform="matrix(0.023871527777777776,0,0,0.023871527777777776,39.435763888888886,0)" xlink:href="#k"/><use transform="matrix(0.023871527777777776,0,0,0.023871527777777776,66.95963541666666,0)" xlink:href="#l"/><use transform="matrix(0.023871527777777776,0,0,0.023871527777777776,84.07552083333333,0)" xlink:href="#m"/><use transform="matrix(0.023871527777777776,0,0,0.023871527777777776,110.28645833333333,0)" xlink:href="#l"/><use transform="matrix(0.023871527777777776,0,0,0.023871527777777776,128.54817708333331,0)" xlink:href="#n"/><use transform="matrix(0.023871527777777776,0,0,0.023871527777777776,153.08810763888886,0)" xlink:href="#o"/><use transform="matrix(0.023871527777777776,0,0,0.023871527777777776,185.0759548611111,0)" xlink:href="#p"/><use transform="matrix(0.023871527777777776,0,0,0.023871527777777776,212.71918402777777,0)" xlink:href="#q"/><use transform="matrix(0.023871527777777776,0,0,0.023871527777777776,255.04340277777777,0)" xlink:href="#r"/><use transform="matrix(0.023871527777777776,0,0,0.023871527777777776,282.56727430555554,0)" xlink:href="#p"/><use transform="matrix(0.023871527777777776,0,0,0.023871527777777776,310.21050347222223,0)" xlink:href="#s"/><use transform="matrix(0.023871527777777776,0,0,0.023871527777777776,337.5911458333333,0)" xlink:href="#t"/><use transform="matrix(0.023871527777777776,0,0,0.023871527777777776,364.0169270833333,0)" xlink:href="#s"/><use transform="matrix(0.023871527777777776,0,0,0.023871527777777776,391.3975694444444,0)" xlink:href="#u"/></g><path fill="#333" d="M399-777c-11 316 60 556 342 556 113 0 193-24 241-72v-251H709v-221h573v581C1177-55 960 24 725 20 280 12 81-292 94-770c11-421 200-700 610-706 347-5 543 171 578 483H990c-25-157-105-241-277-241-102 0-180 38-233 115s-76 191-81 342" id="v"/><path fill="#333" d="M1052-393l142-689h279L1197 0H955L750-681 545 0H304L28-1082h279l141 688 198-688h209" id="w"/><path fill="#333" d="M522-1456L896-400l372-1056h394V0h-301c-7-379 15-728 30-1085L998 0H792L400-1084c15 357 37 705 30 1084H130v-1456h392" id="x"/><path fill="#333" d="M488 20C204 20 66-234 66-549c0-305 140-551 424-553 105 0 192 39 261 118v-552h290V0H780l-14-115C694-25 601 20 488 20zM355-528c0 176 51 314 207 314 89 0 152-38 189-113v-427c-36-75-98-113-187-113-139 0-209 113-209 339" id="y"/><path fill="#333" d="M463 20c-241-1-359-147-359-393v-709h289v699c0 113 51 169 154 169 98 0 165-34 202-102v-766h290V0H767l-8-110C688-23 589 20 463 20" id="z"/><path fill="#333" d="M416 0H126v-1536h290V0" id="A"/><g id="b"><use transform="matrix(0.010850694444444444,0,0,0.010850694444444444,0,0)" xlink:href="#v"/><use transform="matrix(0.010850694444444444,0,0,0.010850694444444444,15.13671875,0)" xlink:href="#m"/><use transform="matrix(0.010850694444444444,0,0,0.010850694444444444,27.05078125,0)" xlink:href="#u"/><use transform="matrix(0.010850694444444444,0,0,0.010850694444444444,34.55946180555556,0)" xlink:href="#t"/><use transform="matrix(0.010850694444444444,0,0,0.010850694444444444,46.57118055555556,0)" xlink:href="#w"/><use transform="matrix(0.010850694444444444,0,0,0.010850694444444444,62.90147569444444,0)" xlink:href="#m"/><use transform="matrix(0.010850694444444444,0,0,0.010850694444444444,74.65277777777777,0)" xlink:href="#n"/><use transform="matrix(0.010850694444444444,0,0,0.010850694444444444,85.80729166666666,0)" xlink:href="#x"/><use transform="matrix(0.010850694444444444,0,0,0.010850694444444444,105.27343749999997,0)" xlink:href="#p"/><use transform="matrix(0.010850694444444444,0,0,0.010850694444444444,117.83854166666666,0)" xlink:href="#y"/><use transform="matrix(0.010850694444444444,0,0,0.010850694444444444,130.36024305555554,0)" xlink:href="#z"/><use transform="matrix(0.010850694444444444,0,0,0.010850694444444444,142.79513888888889,0)" xlink:href="#A"/><use transform="matrix(0.010850694444444444,0,0,0.010850694444444444,148.68706597222223,0)" xlink:href="#t"/></g><path fill="#333" d="M130 0v-1456h448c435 14 673 299 665 762-5 285-130 500-319 606C822-31 708 0 581 0H130zm809-685c9-311-79-526-361-528H430v972h145c252-2 356-181 364-444" id="B"/><path fill="#333" d="M658-217c127 0 227-49 227-165 0-57-21-98-60-130-79-64-370-142-463-196-162-95-248-210-248-361 0-280 246-403 537-407 213-3 383 84 467 216 45 69 68 147 68 234H886c0-139-96-211-240-211-129 0-232 55-232 169 0 47 24 87 72 119s117 62 210 90c171 51 295 115 373 191s117 171 117 284c-2 272-237 411-528 404C331 13 78-135 69-458h301c0 161 96 241 288 241" id="C"/><g id="c"><use transform="matrix(0.010850694444444444,0,0,0.010850694444444444,0,0)" xlink:href="#B"/><use transform="matrix(0.010850694444444444,0,0,0.010850694444444444,14.442274305555555,0)" xlink:href="#m"/><use transform="matrix(0.010850694444444444,0,0,0.010850694444444444,26.35633680555556,0)" xlink:href="#u"/><use transform="matrix(0.010850694444444444,0,0,0.010850694444444444,33.865017361111114,0)" xlink:href="#m"/><use transform="matrix(0.010850694444444444,0,0,0.010850694444444444,45.77907986111111,0)" xlink:href="#C"/><use transform="matrix(0.010850694444444444,0,0,0.010850694444444444,59.44010416666667,0)" xlink:href="#u"/><use transform="matrix(0.010850694444444444,0,0,0.010850694444444444,66.62326388888889,0)" xlink:href="#p"/><use transform="matrix(0.010850694444444444,0,0,0.010850694444444444,79.18836805555556,0)" xlink:href="#l"/><use transform="matrix(0.010850694444444444,0,0,0.010850694444444444,87.08767361111111,0)" xlink:href="#t"/><use transform="matrix(0.010850694444444444,0,0,0.010850694444444444,99.09939236111111,0)" xlink:href="#x"/><use transform="matrix(0.010850694444444444,0,0,0.010850694444444444,118.56553819444444,0)" xlink:href="#p"/><use transform="matrix(0.010850694444444444,0,0,0.010850694444444444,131.13064236111111,0)" xlink:href="#y"/><use transform="matrix(0.010850694444444444,0,0,0.010850694444444444,143.65234375,0)" xlink:href="#z"/><use transform="matrix(0.010850694444444444,0,0,0.010850694444444444,156.08723958333334,0)" xlink:href="#A"/><use transform="matrix(0.010850694444444444,0,0,0.010850694444444444,161.97916666666669,0)" xlink:href="#t"/></g><path fill="#333" d="M449 0H149v-1456h300V0" id="D"/><path fill="#333" d="M355-556c-2 203 30 338 206 343 102 3 181-63 182-161h271C1001-128 821 17 566 20 242 24 66-212 66-554c0-320 184-548 498-548 262 0 451 167 450 423H743c-1-108-75-193-184-189-162 6-202 123-204 312" id="E"/><g id="d"><use transform="matrix(0.010850694444444444,0,0,0.010850694444444444,0,0)" xlink:href="#D"/><use transform="matrix(0.010850694444444444,0,0,0.010850694444444444,6.477864583333333,0)" xlink:href="#s"/><use transform="matrix(0.010850694444444444,0,0,0.010850694444444444,18.92361111111111,0)" xlink:href="#u"/><use transform="matrix(0.010850694444444444,0,0,0.010850694444444444,26.432291666666664,0)" xlink:href="#t"/><use transform="matrix(0.010850694444444444,0,0,0.010850694444444444,38.444010416666664,0)" xlink:href="#l"/><use transform="matrix(0.010850694444444444,0,0,0.010850694444444444,46.22395833333333,0)" xlink:href="#m"/><use transform="matrix(0.010850694444444444,0,0,0.010850694444444444,58.13802083333333,0)" xlink:href="#E"/><use transform="matrix(0.010850694444444444,0,0,0.010850694444444444,69.7265625,0)" xlink:href="#u"/><use transform="matrix(0.010850694444444444,0,0,0.010850694444444444,76.90972222222223,0)" xlink:href="#p"/><use transform="matrix(0.010850694444444444,0,0,0.010850694444444444,89.4748263888889,0)" xlink:href="#l"/><use transform="matrix(0.010850694444444444,0,0,0.010850694444444444,97.5802951388889,0)" xlink:href="#x"/><use transform="matrix(0.010850694444444444,0,0,0.010850694444444444,117.04644097222224,0)" xlink:href="#p"/><use transform="matrix(0.010850694444444444,0,0,0.010850694444444444,129.61154513888889,0)" xlink:href="#y"/><use transform="matrix(0.010850694444444444,0,0,0.010850694444444444,142.13324652777777,0)" xlink:href="#z"/><use transform="matrix(0.010850694444444444,0,0,0.010850694444444444,154.56814236111111,0)" xlink:href="#A"/><use transform="matrix(0.010850694444444444,0,0,0.010850694444444444,160.46006944444446,0)" xlink:href="#t"/></g><g id="e"><use transform="matrix(0.010850694444444444,0,0,0.010850694444444444,0,0)" xlink:href="#i"/><use transform="matrix(0.010850694444444444,0,0,0.010850694444444444,12.03342013888889,0)" xlink:href="#j"/><use transform="matrix(0.010850694444444444,0,0,0.010850694444444444,17.92534722222222,0)" xlink:href="#k"/><use transform="matrix(0.010850694444444444,0,0,0.010850694444444444,30.436197916666664,0)" xlink:href="#l"/><use transform="matrix(0.010850694444444444,0,0,0.010850694444444444,38.21614583333333,0)" xlink:href="#m"/><use transform="matrix(0.010850694444444444,0,0,0.010850694444444444,50.13020833333333,0)" xlink:href="#l"/><use transform="matrix(0.010850694444444444,0,0,0.010850694444444444,58.43098958333333,0)" xlink:href="#n"/><use transform="matrix(0.010850694444444444,0,0,0.010850694444444444,69.58550347222221,0)" xlink:href="#x"/><use transform="matrix(0.010850694444444444,0,0,0.010850694444444444,89.05164930555556,0)" xlink:href="#p"/><use transform="matrix(0.010850694444444444,0,0,0.010850694444444444,101.61675347222221,0)" xlink:href="#y"/><use transform="matrix(0.010850694444444444,0,0,0.010850694444444444,114.1384548611111,0)" xlink:href="#z"/><use transform="matrix(0.010850694444444444,0,0,0.010850694444444444,126.57335069444441,0)" xlink:href="#A"/><use transform="matrix(0.010850694444444444,0,0,0.010850694444444444,132.46527777777777,0)" xlink:href="#t"/></g><path fill="#333" d="M1209-1016c0 219-100 334-260 407l315 595V0H942L669-533H430V0H130v-1456h541c318-3 538 141 538 440zm-300 24c-1-144-85-221-238-221H430v437h242c144 2 238-77 237-216" id="F"/><path fill="#333" d="M529-185c94 0 168-33 168-114 0-35-18-63-53-83s-91-39-168-55C219-491 90-600 90-765c0-208 203-337 432-337 246 0 451 124 453 349H686c-2-91-62-143-165-143-86 0-151 41-153 117 0 32 16 57 46 77 63 43 257 69 335 100 151 60 229 153 229 291C978-13 554 93 282-28 162-81 60-190 56-344h274c5 106 86 159 199 159" id="G"/><g id="f"><use transform="matrix(0.010850694444444444,0,0,0.010850694444444444,0,0)" xlink:href="#F"/><use transform="matrix(0.010850694444444444,0,0,0.010850694444444444,14.181857638888888,0)" xlink:href="#t"/><use transform="matrix(0.010850694444444444,0,0,0.010850694444444444,26.19357638888889,0)" xlink:href="#r"/><use transform="matrix(0.010850694444444444,0,0,0.010850694444444444,38.70442708333333,0)" xlink:href="#p"/><use transform="matrix(0.010850694444444444,0,0,0.010850694444444444,51.269531249999986,0)" xlink:href="#G"/><use transform="matrix(0.010850694444444444,0,0,0.010850694444444444,62.6953125,0)" xlink:href="#j"/><use transform="matrix(0.010850694444444444,0,0,0.010850694444444444,68.58723958333333,0)" xlink:href="#u"/><use transform="matrix(0.010850694444444444,0,0,0.010850694444444444,75.77039930555556,0)" xlink:href="#p"/><use transform="matrix(0.010850694444444444,0,0,0.010850694444444444,88.33550347222223,0)" xlink:href="#l"/><use transform="matrix(0.010850694444444444,0,0,0.010850694444444444,96.63628472222221,0)" xlink:href="#n"/><use transform="matrix(0.010850694444444444,0,0,0.010850694444444444,107.79079861111111,0)" xlink:href="#x"/><use transform="matrix(0.010850694444444444,0,0,0.010850694444444444,127.25694444444444,0)" xlink:href="#p"/><use transform="matrix(0.010850694444444444,0,0,0.010850694444444444,139.82204861111111,0)" xlink:href="#y"/><use transform="matrix(0.010850694444444444,0,0,0.010850694444444444,152.34375,0)" xlink:href="#z"/><use transform="matrix(0.010850694444444444,0,0,0.010850694444444444,164.77864583333334,0)" xlink:href="#A"/><use transform="matrix(0.010850694444444444,0,0,0.010850694444444444,170.67057291666669,0)" xlink:href="#t"/></g><path fill="#333" d="M190-1174c-11-296 244-440 544-363l-3 224c-24-6-53-9-88-9-109 0-163 51-163 153v87h215v212H480V0H190v-870H29v-212h161v-92" id="H"/><g id="g"><use transform="matrix(0.010850694444444444,0,0,0.010850694444444444,0,0)" xlink:href="#F"/><use transform="matrix(0.010850694444444444,0,0,0.010850694444444444,14.181857638888888,0)" xlink:href="#t"/><use transform="matrix(0.010850694444444444,0,0,0.010850694444444444,26.19357638888889,0)" xlink:href="#u"/><use transform="matrix(0.010850694444444444,0,0,0.010850694444444444,33.70225694444444,0)" xlink:href="#l"/><use transform="matrix(0.010850694444444444,0,0,0.010850694444444444,41.41710069444444,0)" xlink:href="#p"/><use transform="matrix(0.010850694444444444,0,0,0.010850694444444444,53.98220486111111,0)" xlink:href="#H"/><use transform="matrix(0.010850694444444444,0,0,0.010850694444444444,61.94661458333333,0)" xlink:href="#j"/><use transform="matrix(0.010850694444444444,0,0,0.010850694444444444,67.83854166666666,0)" xlink:href="#u"/><use transform="matrix(0.010850694444444444,0,0,0.010850694444444444,75.34722222222221,0)" xlink:href="#x"/><use transform="matrix(0.010850694444444444,0,0,0.010850694444444444,94.81336805555556,0)" xlink:href="#p"/><use transform="matrix(0.010850694444444444,0,0,0.010850694444444444,107.37847222222221,0)" xlink:href="#y"/><use transform="matrix(0.010850694444444444,0,0,0.010850694444444444,119.9001736111111,0)" xlink:href="#z"/><use transform="matrix(0.010850694444444444,0,0,0.010850694444444444,132.33506944444443,0)" xlink:href="#A"/><use transform="matrix(0.010850694444444444,0,0,0.010850694444444444,138.22699652777777,0)" xlink:href="#t"/></g><path fill="#333" d="M668-361l330-1095h334L825 0H512L7-1456h333" id="I"/><path fill="#333" d="M504-434L400-330V0H111v-1536h289v851c106-137 222-264 333-397h347L689-631 1114 0H782" id="J"/><path fill="#333" d="M417 59c1 237-132 380-369 378-50 0-98-6-143-17V191c122 27 222 1 222-130v-1143h290V59zM266-1212c-92 0-162-61-162-150s68-149 162-149 162 60 162 149-70 150-162 150" id="K"/><g id="h"><use transform="matrix(0.013020833333333332,0,0,0.013020833333333332,0,0)" xlink:href="#I"/><use transform="matrix(0.013020833333333332,0,0,0.013020833333333332,17.434895833333332,0)" xlink:href="#r"/><use transform="matrix(0.013020833333333332,0,0,0.013020833333333332,32.447916666666664,0)" xlink:href="#s"/><use transform="matrix(0.013020833333333332,0,0,0.013020833333333332,47.3828125,0)" xlink:href="#C"/><use transform="matrix(0.013020833333333332,0,0,0.013020833333333332,63.776041666666664,0)" xlink:href="#y"/><use transform="matrix(0.013020833333333332,0,0,0.013020833333333332,78.80208333333333,0)" xlink:href="#J"/><use transform="matrix(0.013020833333333332,0,0,0.013020833333333332,93.046875,0)" xlink:href="#D"/><use transform="matrix(0.013020833333333332,0,0,0.013020833333333332,100.8203125,0)" xlink:href="#s"/><use transform="matrix(0.013020833333333332,0,0,0.013020833333333332,115.75520833333333,0)" xlink:href="#K"/><use transform="matrix(0.013020833333333332,0,0,0.013020833333333332,122.68229166666666,0)" xlink:href="#t"/><use transform="matrix(0.013020833333333332,0,0,0.013020833333333332,137.09635416666666,0)" xlink:href="#E"/><use transform="matrix(0.013020833333333332,0,0,0.013020833333333332,151.00260416666666,0)" xlink:href="#u"/><use transform="matrix(0.013020833333333332,0,0,0.013020833333333332,159.62239583333331,0)" xlink:href="#p"/><use transform="matrix(0.013020833333333332,0,0,0.013020833333333332,174.70052083333331,0)" xlink:href="#l"/></g></defs></g></svg>