<svg xmlns="http://www.w3.org/2000/svg" xmlns:xlink="http://www.w3.org/1999/xlink" width="1661"
    height="970.75"><g transform="translate(100.5 -154.04822834645574)"><path d="M987.87 300h240v60h-240z" fill="none"/><use xlink:href="#a" transform="matrix(1,0,0,1,987.866141732283,300) translate(70.27669270833334 39.87413194444444)"/><path d="M1266.87 307h240v60h-240z" fill="none"/><use xlink:href="#b" transform="matrix(1,0,0,1,1266.8661417322833,307) translate(90.24359809027777 39.87413194444444)"/><path d="M273.93 301.3h240v60h-240z" fill="none"/><use xlink:href="#c" transform="matrix(1,0,0,1,273.93307086614163,301.29527559055066) translate(92.56401909722223 39.87413194444444)"/><path d="M717.87 300h240v60h-240z" fill="none"/><use xlink:href="#d" transform="matrix(1,0,0,1,717.8661417322833,300) translate(46.11328125 39.87413194444444)"/><path d="M702.87 350.08a1.5 1.5 0 0 1 1.5 1.5V967a1.5 1.5 0 0 1-1.5 1.5 1.5 1.5 0 0 1-1.5-1.5V351.58a1.5 1.5 0 0 1 1.5-1.5zM981 350.08a1.5 1.5 0 0 1 1.5 1.5v617a1.5 1.5 0 0 1-1.5 1.5 1.5 1.5 0 0 1-1.5-1.5v-617a1.5 1.5 0 0 1 1.5-1.5zM1250.93 350.88a1.5 1.5 0 0 1 1.5 1.5V957a1.5 1.5 0 0 1-1.5 1.5 1.5 1.5 0 0 1-1.5-1.5V352.38a1.5 1.5 0 0 1 1.5-1.5z" stroke="#5e5e5e" stroke-width="3" fill="none"/><path d="M1047.87 483.1a6 6 0 0 1 6-6h108a6 6 0 0 1 6 6v68a6 6 0 0 1-6 6h-108a6 6 0 0 1-6-6z" stroke="#9391ff" stroke-width="3" fill="#fff"/><use xlink:href="#e" transform="matrix(1,0,0,1,1059.866141732283,489.0905511811013) translate(20.428385416666668 34.61631944444444)"/><path d="M1027.87 599.1a6 6 0 0 1 6-6h148a6 6 0 0 1 6 6v48a6 6 0 0 1-6 6h-148a6 6 0 0 1-6-6z" stroke="#9391ff" stroke-width="3" fill="#fff"/><use xlink:href="#f" transform="matrix(1,0,0,1,1039.866141732283,605.0905511811013) translate(0.8287760416666714 25.116319444444443)"/><path d="M1020.12 695.1a6 6 0 0 1 6-6h166.5a6 6 0 0 1 6 6v48a6 6 0 0 1-6 6h-166.5a6 6 0 0 1-6-6z" stroke="#9391ff" stroke-width="3" fill="#fff"/><use xlink:href="#g" transform="matrix(1,0,0,1,1032.1161417322833,701.0905511811013) translate(20.327690972222214 25.116319444444443)"/><path d="M1298.54 695.1a6 6 0 0 1 6-6h166.5a6 6 0 0 1 6 6v48a6 6 0 0 1-6 6h-166.5a6 6 0 0 1-6-6z" stroke="#ffd9d9" stroke-width="3" fill="#fff"/><use xlink:href="#h" transform="matrix(1,0,0,1,1310.5362665893197,701.0905511811013) translate(34.80251736111111 25.116319444444443)"/><path d="M1296.04 719.1h-77.42" stroke="#5e5e5e" stroke-width="2" fill="none"/><path d="M1297.04 720.1H1296v-2h1.04z" stroke="#5e5e5e" stroke-width=".05" fill="#5e5e5e"/><path d="M1203.35 719.1l14.27-4.64v9.27z" stroke="#5e5e5e" stroke-width="2" fill="#fff"/><path d="M1307.8 599.46a6 6 0 0 1 6-6h148a6 6 0 0 1 6 6v48a6 6 0 0 1-6 6h-148a6 6 0 0 1-6-6z" stroke="#ffd9d9" stroke-width="3" fill="#fff"/><use xlink:href="#i" transform="matrix(1,0,0,1,1319.7862665893197,605.4547244094492) translate(15.303602430555557 25.116319444444443)"/><path d="M1305.3 623.46H1248a.18.18 0 0 1-.17-.2.18.18 0 0 0-.2-.17h-39.76" stroke="#5e5e5e" stroke-width="2" fill="none"/><path d="M1306.3 624.46h-1.04v-2h1.03z" stroke="#5e5e5e" stroke-width=".05" fill="#5e5e5e"/><path d="M1192.6 623.1l14.27-4.64v9.27z" stroke="#5e5e5e" stroke-width="2" fill="#fff"/><path d="M747.87 629.1a6 6 0 0 1 6-6h156.5a6 6 0 0 1 6 6v48a6 6 0 0 1-6 6h-156.5a6 6 0 0 1-6-6z" stroke="#ffdda6" stroke-width="3" fill="#fff"/><use xlink:href="#j" transform="matrix(1,0,0,1,752.8661417322832,628.0905511811013) translate(26.082031250000007 33.11631944444444)"/><path d="M918.87 639.1h47.25a6 6 0 0 0 6-6v-4a6 6 0 0 1 6-6h29.74" stroke="#5e5e5e" stroke-width="2" fill="none"/><path d="M918.9 640.1h-1.03v-2h1.02z" stroke="#5e5e5e" stroke-width=".05" fill="#5e5e5e"/><path d="M1023.13 623.1l-14.27 4.63v-9.27z" stroke="#5e5e5e" stroke-width="2" fill="#5e5e5e"/><path d="M918.87 653.1h43.37a6 6 0 0 1 6 6v45a6 6 0 0 0 6 6h25.87" stroke="#5e5e5e" stroke-width="2" fill="none"/><path d="M918.9 654.1h-1.03v-2h1.02z" stroke="#5e5e5e" stroke-width=".05" fill="#5e5e5e"/><path d="M1015.38 710.1l-14.27 4.63v-9.27z" stroke="#5e5e5e" stroke-width="2" fill="#5e5e5e"/><path d="M730.87 522.6a6 6 0 0 1 6-6h205a6 6 0 0 1 6 6v48a6 6 0 0 1-6 6h-205a6 6 0 0 1-6-6z" stroke="#ffdda6" stroke-width="3" fill="#fff"/><use xlink:href="#k" transform="matrix(1,0,0,1,742.8661417322833,528.5905511811013) translate(-8.024739583333329 25.59548611111111)"/><path d="M832.12 620.6v-24.01" stroke="#5e5e5e" stroke-width="2" fill="none"/><path d="M833.12 621.6h-2v-1.03h2z" stroke="#5e5e5e" stroke-width=".05" fill="#5e5e5e"/><path d="M832.12 581.33l4.63 14.26h-9.27z" stroke="#5e5e5e" stroke-width="2" fill="#fff"/><path d="M467.87 522.6a6 6 0 0 1 6-6h168a6 6 0 0 1 6 6v48a6 6 0 0 1-6 6h-168a6 6 0 0 1-6-6z" stroke="#6db1ff" stroke-width="3" fill="#fff"/><use xlink:href="#l" transform="matrix(1,0,0,1,479.86614173228327,528.5905511811013) translate(36.87586805555555 25.116319444444443)"/><path d="M650.37 546.6h60.5" stroke="#5e5e5e" stroke-width="2" fill="none"/><path d="M650.4 547.6h-1.03v-2h1.02z" stroke="#5e5e5e" stroke-width=".05" fill="#5e5e5e"/><path d="M726.13 546.6l-14.27 4.63v-9.27z" stroke="#5e5e5e" stroke-width="2" fill="#5e5e5e"/><path d="M1009.2 904.42a6 6 0 0 1 6-6h171a6 6 0 0 1 6 6v48a6 6 0 0 1-6 6h-171a6 6 0 0 1-6-6z" stroke="#9391ff" stroke-width="3" fill="#fff"/><use xlink:href="#m" transform="matrix(1,0,0,1,1014.1935227441879,903.4238845144347) translate(-5.150390625000014 32.595486111111114)"/><path d="M999.37 791.1a6 6 0 0 1 6-6h205a6 6 0 0 1 6 6v65.32a6 6 0 0 1-6 6h-205a6 6 0 0 1-6-6z" stroke="#9391ff" stroke-width="3" fill="#fff"/><use xlink:href="#n" transform="matrix(1,0,0,1,1011.366141732283,797.0905511811014) translate(10.578776041666657 23.991319444444443)"/><use xlink:href="#o" transform="matrix(1,0,0,1,1011.366141732283,797.0905511811014) translate(39.6640625 50.03298611111111)"/><path d="M1100.7 895.92v-13.5" stroke="#5e5e5e" stroke-width="2" fill="none"/><path d="M1101.7 896.92h-2v-1.02h2z" stroke="#5e5e5e" stroke-width=".05" fill="#5e5e5e"/><path d="M1100.7 867.16l4.63 14.27h-9.27z" stroke="#5e5e5e" stroke-width="2" fill="#fff"/><path d="M918.87 675.1h33a6 6 0 0 1 6 6V922.4a6 6 0 0 0 6 6h25.32" stroke="#5e5e5e" stroke-width="2" fill="none"/><path d="M918.9 676.1h-1.03v-2h1.02z" stroke="#5e5e5e" stroke-width=".05" fill="#5e5e5e"/><path d="M1004.46 928.42l-14.27 4.64v-9.27z" stroke="#5e5e5e" stroke-width="2" fill="#5e5e5e"/><path d="M467.87 624.67a6 6 0 0 1 6-6h168a6 6 0 0 1 6 6v48a6 6 0 0 1-6 6h-168a6 6 0 0 1-6-6z" stroke="#54c45e" stroke-width="3" fill="#fff"/><use xlink:href="#p" transform="matrix(1,0,0,1,479.86614173228327,630.6732283464557) translate(15.207031250000007 25.116319444444443)"/><path d="M650.37 648.67h33a6 6 0 0 0 6-6v-68.1a6 6 0 0 1 6-6h15.5" stroke="#5e5e5e" stroke-width="2" fill="none"/><path d="M650.4 649.67h-1.03v-2h1.02z" stroke="#5e5e5e" stroke-width=".05" fill="#5e5e5e"/><path d="M726.13 568.58l-14.27 4.64v-9.27z" stroke="#5e5e5e" stroke-width="2" fill="#5e5e5e"/><path d="M213.93 522.6a6 6 0 0 1 6-6h168a6 6 0 0 1 6 6v48a6 6 0 0 1-6 6h-168a6 6 0 0 1-6-6z" stroke="#6db1ff" stroke-width="3" fill="#fff"/><use xlink:href="#q" transform="matrix(1,0,0,1,225.93307086614163,528.5905511811013) translate(41.525390625 25.116319444444443)"/><path d="M213.93 624.67a6 6 0 0 1 6-6h168a6 6 0 0 1 6 6v48a6 6 0 0 1-6 6h-168a6 6 0 0 1-6-6z" stroke="#54c45e" stroke-width="3" fill="#fff"/><use xlink:href="#r" transform="matrix(1,0,0,1,225.93307086614163,630.6732283464557) translate(22.422743055555557 25.116319444444443)"/><path d="M465.37 546.6h-51.44" stroke="#5e5e5e" stroke-width="2" fill="none"/><path d="M466.37 547.6h-1.03v-2h1.03z" stroke="#5e5e5e" stroke-width=".05" fill="#5e5e5e"/><path d="M398.67 546.6l14.26-4.64v9.27z" stroke="#5e5e5e" stroke-width="2" fill="#fff"/><path d="M465.37 648.67h-51.44" stroke="#5e5e5e" stroke-width="2" fill="none"/><path d="M466.37 649.67h-1.03v-2h1.03z" stroke="#5e5e5e" stroke-width=".05" fill="#5e5e5e"/><path d="M398.67 648.67l14.26-4.63v9.27z" stroke="#5e5e5e" stroke-width="2" fill="#fff"/><path d="M-40 624.67a6 6 0 0 1 6-6h168a6 6 0 0 1 6 6v48a6 6 0 0 1-6 6H-34a6 6 0 0 1-6-6z" stroke="#6db1ff" stroke-width="3" fill="#fff"/><use xlink:href="#s" transform="matrix(1,0,0,1,-28,630.6732283464557) translate(40.07682291666667 25.116319444444443)"/><path d="M50 616.17V552.6a6 6 0 0 1 6-6h137.93" stroke="#282c33" stroke-width="2" fill="none"/><path d="M51 617.17h-2v-1.02h2z" stroke="#282c33" stroke-width=".05" fill="#282c33"/><path d="M209.2 546.6l-14.27 4.63v-9.27z" stroke="#282c33" stroke-width="2" fill="#282c33"/><path d="M142.5 648.67h51.43" stroke="#282c33" stroke-width="2" fill="none"/><path d="M142.53 649.67h-1.03v-2h1.03z" stroke="#282c33" stroke-width=".05" fill="#282c33"/><path d="M209.2 648.67l-14.27 4.64v-9.26z" stroke="#282c33" stroke-width="2" fill="#282c33"/><defs><path fill="#333" d="M130 0v-1456h448c435 14 673 299 665 762-5 285-130 500-319 606C822-31 708 0 581 0H130zm809-685c9-311-79-526-361-528H430v972h145c252-2 356-181 364-444" id="t"/><path fill="#333" d="M579 20C257 20 58-214 66-551c8-331 182-551 511-551 324 0 514 231 514 572 0 319-198 550-512 550zm-2-888c-169 0-222 141-222 338 0 181 61 317 224 317 170 0 223-137 223-338 0-178-64-317-225-317" id="u"/><path fill="#333" d="M741-689c-2-124-40-177-163-178-82 0-141 34-178 102V0H111v-1082h271l9 121c77-94 180-141 311-141 139 0 235 55 287 165 76-110 184-165 325-165 249 0 348 151 348 411V0h-290v-690c-2-123-39-176-163-177-87 0-147 41-180 124l1 743H741v-689" id="v"/><path fill="#333" d="M552-1102c254-4 435 134 435 383v469c1 103 15 180 43 233V0H738c-13-26-23-58-29-97C639-19 548 20 436 20 238 20 64-113 68-304c5-258 212-357 496-357h133c11-137-29-227-160-227-90 0-156 45-156 131H92c15-231 213-342 460-345zM357-325c0 76 61 124 142 124 88 0 168-45 198-105v-186H589c-152 2-232 51-232 167" id="w"/><path fill="#333" d="M416 0H126v-1082h290V0zM271-1212c-92 0-162-61-162-150s68-149 162-149c93 0 162 60 162 149s-70 150-162 150" id="x"/><path fill="#333" d="M750-692c-1-124-48-174-173-175-81 0-142 35-183 104V0H105v-1082h272l9 125c77-97 181-145 311-145 244 0 342 151 342 403V0H750v-692" id="y"/><g id="a"><use transform="matrix(0.014105902777777776,0,0,0.014105902777777776,0,0)" xlink:href="#t"/><use transform="matrix(0.014105902777777776,0,0,0.014105902777777776,18.77495659722222,0)" xlink:href="#u"/><use transform="matrix(0.014105902777777776,0,0,0.014105902777777776,35.109592013888886,0)" xlink:href="#v"/><use transform="matrix(0.014105902777777776,0,0,0.014105902777777776,60.119357638888886,0)" xlink:href="#w"/><use transform="matrix(0.014105902777777776,0,0,0.014105902777777776,75.60763888888889,0)" xlink:href="#x"/><use transform="matrix(0.014105902777777776,0,0,0.014105902777777776,83.26714409722221,0)" xlink:href="#y"/></g><path fill="#333" d="M457-330c2 83 25 111 111 112 32 0 60-2 85-7V-6c-57 17-115 26-175 26-203 0-310-102-310-307v-583H10v-212h158v-266h289v266h185v212H457v540" id="z"/><g id="b"><use transform="matrix(0.014105902777777776,0,0,0.014105902777777776,0,0)" xlink:href="#t"/><use transform="matrix(0.014105902777777776,0,0,0.014105902777777776,18.77495659722222,0)" xlink:href="#w"/><use transform="matrix(0.014105902777777776,0,0,0.014105902777777776,34.26323784722222,0)" xlink:href="#z"/><use transform="matrix(0.014105902777777776,0,0,0.014105902777777776,44.02452256944444,0)" xlink:href="#w"/></g><path fill="#333" d="M658-217c127 0 227-49 227-165 0-57-21-98-60-130-79-64-370-142-463-196-162-95-248-210-248-361 0-280 246-403 537-407 213-3 383 84 467 216 45 69 68 147 68 234H886c0-139-96-211-240-211-129 0-232 55-232 169 0 47 24 87 72 119s117 62 210 90c171 51 295 115 373 191s117 171 117 284c-2 272-237 411-528 404C331 13 78-135 69-458h301c0 161 96 241 288 241" id="A"/><path fill="#333" d="M586-584L430-416V0H130v-1456h300v660c161-226 335-440 503-660h369L785-809 1317 0H960" id="B"/><g id="c"><use transform="matrix(0.014105902777777776,0,0,0.014105902777777776,0,0)" xlink:href="#A"/><use transform="matrix(0.014105902777777776,0,0,0.014105902777777776,17.75933159722222,0)" xlink:href="#t"/><use transform="matrix(0.014105902777777776,0,0,0.014105902777777776,36.53428819444444,0)" xlink:href="#B"/></g><path fill="#333" d="M952-300H426L326 0H7l542-1456h278L1372 0h-319zM507-543h364l-183-545" id="C"/><path fill="#333" d="M663-1102c295 0 422 250 422 571 0 300-141 549-420 551-109 0-198-38-265-114v510H111v-1498h268l10 106c70-84 161-126 274-126zm133 550c0-175-53-315-209-315-91 0-153 35-187 104v443c35 71 98 107 189 107 138 0 207-113 207-339" id="D"/><path fill="#333" d="M416 0H126v-1536h290V0" id="E"/><path fill="#333" d="M355-556c-2 203 30 338 206 343 102 3 181-63 182-161h271C1001-128 821 17 566 20 242 24 66-212 66-554c0-320 184-548 498-548 262 0 451 167 450 423H743c-1-108-75-193-184-189-162 6-202 123-204 312" id="F"/><g id="d"><use transform="matrix(0.014105902777777776,0,0,0.014105902777777776,0,0)" xlink:href="#C"/><use transform="matrix(0.014105902777777776,0,0,0.014105902777777776,19.437934027777775,0)" xlink:href="#D"/><use transform="matrix(0.014105902777777776,0,0,0.014105902777777776,35.70203993055555,0)" xlink:href="#D"/><use transform="matrix(0.014105902777777776,0,0,0.014105902777777776,51.96614583333333,0)" xlink:href="#E"/><use transform="matrix(0.014105902777777776,0,0,0.014105902777777776,59.62565104166666,0)" xlink:href="#x"/><use transform="matrix(0.014105902777777776,0,0,0.014105902777777776,67.28515624999999,0)" xlink:href="#F"/><use transform="matrix(0.014105902777777776,0,0,0.014105902777777776,82.35026041666666,0)" xlink:href="#w"/><use transform="matrix(0.014105902777777776,0,0,0.014105902777777776,97.83854166666666,0)" xlink:href="#z"/><use transform="matrix(0.014105902777777776,0,0,0.014105902777777776,107.59982638888889,0)" xlink:href="#x"/><use transform="matrix(0.014105902777777776,0,0,0.014105902777777776,115.25933159722221,0)" xlink:href="#u"/><use transform="matrix(0.014105902777777776,0,0,0.014105902777777776,131.59396701388889,0)" xlink:href="#y"/></g><path fill="#333" d="M651-255l416-1201h210L737 0H567L28-1456h209" id="G"/><path fill="#333" d="M561-1102c238-4 403 126 403 351v498c0 99 13 178 38 237V0H808c-11-21-19-59-26-114C696-25 593 20 474 20c-199 0-368-130-365-320 4-251 214-359 490-356h180v-85c-1-135-86-212-229-212-115 0-232 67-233 171H131c20-205 206-316 430-320zM294-326c0 117 90 185 207 185 122 0 239-75 278-162v-222H634c-227 0-340 66-340 199" id="H"/><path fill="#333" d="M341 0H156v-1536h185V0" id="I"/><path fill="#333" d="M491 20c-241-1-355-148-355-398v-704h185v699c0 164 67 246 200 246 141 0 235-53 282-158v-787h185V0H812l-4-107C736-22 630 20 491 20" id="J"/><path fill="#333" d="M599-131c141 0 220-65 285-146l113 88C906-50 770 20 589 20 281 21 93-214 93-545c0-223 93-397 233-485 74-48 154-72 240-72 300 2 449 218 445 537v77H278c0 197 129 357 321 357zm227-509c-3-180-88-310-260-310-170 0-264 140-282 310h542" id="K"/><g id="e"><use transform="matrix(0.010850694444444444,0,0,0.010850694444444444,0,0)" xlink:href="#G"/><use transform="matrix(0.010850694444444444,0,0,0.010850694444444444,13.639322916666666,0)" xlink:href="#H"/><use transform="matrix(0.010850694444444444,0,0,0.010850694444444444,25.72699652777778,0)" xlink:href="#I"/><use transform="matrix(0.010850694444444444,0,0,0.010850694444444444,31.119791666666664,0)" xlink:href="#J"/><use transform="matrix(0.010850694444444444,0,0,0.010850694444444444,43.37022569444444,0)" xlink:href="#K"/></g><path fill="#333" d="M1161-1018c0 201-122 330-278 388l342 618V0h-206L703-589H361V0H168v-1456h482c310-2 511 139 511 438zm-193 0c0-187-120-280-313-280H361v552h295c179 3 313-101 312-272" id="L"/><path fill="#333" d="M632-1102c291 0 422 251 422 573 0 297-141 548-419 549-131 0-235-42-310-125v521H140v-1498h169l9 120c75-93 180-140 314-140zm-53 971c207 0 290-180 290-419 0-218-92-395-292-395-112 0-196 50-252 149v517c55 99 140 148 254 148" id="M"/><path fill="#333" d="M584 20C278 26 81-227 91-551c10-320 175-545 491-551 308-5 503 247 494 573-9 322-175 543-492 549zm-2-970c-208 0-305 185-305 421 0 216 106 398 307 398 211 0 307-186 307-420 0-214-109-399-309-399" id="N"/><path fill="#333" d="M538-131c121 0 232-49 232-156 0-50-20-88-56-117-73-60-334-92-420-143-92-55-162-110-162-238 0-190 192-317 400-317 223 0 414 129 413 338H759c0-108-110-186-227-186-119 0-215 53-215 159 0 45 18 78 53 101 76 52 331 90 416 139 98 57 169 115 169 251C955-92 760 20 538 20c-176 0-314-68-386-174-38-55-57-115-57-179h185c6 129 116 202 258 202" id="O"/><path fill="#333" d="M341 0H156v-1082h185V0zm-91-1264c-68 0-108-42-109-105 0-62 41-107 109-107s110 44 110 107-42 105-110 105" id="P"/><path fill="#333" d="M456 20C285 20 205-92 206-268v-671H9v-143h197v-262h185v262h202v143H391v671c-9 125 92 149 207 118V0c-49 13-96 20-142 20" id="Q"/><path fill="#333" d="M663-916c-163-27-288 18-338 148V0H140v-1082h180l3 125c61-97 147-145 258-145 36 0 63 5 82 14v172" id="R"/><path fill="#333" d="M494-271l252-811h198L509 167C425 381 299 474 84 421V271c167 16 242-37 283-173l41-110L22-1082h202" id="S"/><path fill="#333" d="M264-644l626 253v196L72-574v-146l818-378v196" id="T"/><path fill="#333" d="M375 0H183v-1456h192V0" id="U"/><path fill="#333" d="M795-650L134-909v-190l854 378v146L134-196v-192" id="V"/><g id="f"><use transform="matrix(0.010850694444444444,0,0,0.010850694444444444,0,0)" xlink:href="#L"/><use transform="matrix(0.010850694444444444,0,0,0.010850694444444444,13.682725694444445,0)" xlink:href="#K"/><use transform="matrix(0.010850694444444444,0,0,0.010850694444444444,25.455729166666664,0)" xlink:href="#M"/><use transform="matrix(0.010850694444444444,0,0,0.010850694444444444,37.92317708333333,0)" xlink:href="#N"/><use transform="matrix(0.010850694444444444,0,0,0.010850694444444444,50.59678819444444,0)" xlink:href="#O"/><use transform="matrix(0.010850694444444444,0,0,0.010850694444444444,62.05512152777778,0)" xlink:href="#P"/><use transform="matrix(0.010850694444444444,0,0,0.010850694444444444,67.44791666666666,0)" xlink:href="#Q"/><use transform="matrix(0.010850694444444444,0,0,0.010850694444444444,74.4900173611111,0)" xlink:href="#N"/><use transform="matrix(0.010850694444444444,0,0,0.010850694444444444,87.16362847222221,0)" xlink:href="#R"/><use transform="matrix(0.010850694444444444,0,0,0.010850694444444444,94.87847222222221,0)" xlink:href="#S"/><use transform="matrix(0.010850694444444444,0,0,0.010850694444444444,105.39279513888889,0)" xlink:href="#T"/><use transform="matrix(0.010850694444444444,0,0,0.010850694444444444,116.68836805555556,0)" xlink:href="#U"/><use transform="matrix(0.010850694444444444,0,0,0.010850694444444444,122.7322048611111,0)" xlink:href="#V"/></g><path fill="#333" d="M730-137c145 0 253-29 323-105v-327H716v-156h528v534C1148-51 964 20 729 20c-394 0-598-279-607-678v-127c-5-410 194-690 585-691 310-1 499 171 537 447h-192c-36-193-151-289-344-289-285 0-393 220-393 528v119c-5 296 140 534 415 534" id="W"/><path fill="#333" d="M1098-255l208-827h185L1176 0h-150L763-820 507 0H357L43-1082h184l213 810 252-810h149" id="X"/><g id="g"><use transform="matrix(0.010850694444444444,0,0,0.010850694444444444,0,0)" xlink:href="#W"/><use transform="matrix(0.010850694444444444,0,0,0.010850694444444444,15.13671875,0)" xlink:href="#H"/><use transform="matrix(0.010850694444444444,0,0,0.010850694444444444,27.22439236111111,0)" xlink:href="#Q"/><use transform="matrix(0.010850694444444444,0,0,0.010850694444444444,34.48350694444444,0)" xlink:href="#K"/><use transform="matrix(0.010850694444444444,0,0,0.010850694444444444,46.256510416666664,0)" xlink:href="#X"/><use transform="matrix(0.010850694444444444,0,0,0.010850694444444444,62.955729166666664,0)" xlink:href="#H"/><use transform="matrix(0.010850694444444444,0,0,0.010850694444444444,74.88064236111111,0)" xlink:href="#S"/><use transform="matrix(0.010850694444444444,0,0,0.010850694444444444,85.39496527777779,0)" xlink:href="#T"/><use transform="matrix(0.010850694444444444,0,0,0.010850694444444444,96.69053819444446,0)" xlink:href="#U"/><use transform="matrix(0.010850694444444444,0,0,0.010850694444444444,102.73437500000001,0)" xlink:href="#V"/></g><g id="h"><use transform="matrix(0.010850694444444444,0,0,0.010850694444444444,0,0)" xlink:href="#W"/><use transform="matrix(0.010850694444444444,0,0,0.010850694444444444,15.13671875,0)" xlink:href="#H"/><use transform="matrix(0.010850694444444444,0,0,0.010850694444444444,27.22439236111111,0)" xlink:href="#Q"/><use transform="matrix(0.010850694444444444,0,0,0.010850694444444444,34.48350694444444,0)" xlink:href="#K"/><use transform="matrix(0.010850694444444444,0,0,0.010850694444444444,46.256510416666664,0)" xlink:href="#X"/><use transform="matrix(0.010850694444444444,0,0,0.010850694444444444,62.955729166666664,0)" xlink:href="#H"/><use transform="matrix(0.010850694444444444,0,0,0.010850694444444444,74.88064236111111,0)" xlink:href="#S"/></g><g id="i"><use transform="matrix(0.010850694444444444,0,0,0.010850694444444444,0,0)" xlink:href="#L"/><use transform="matrix(0.010850694444444444,0,0,0.010850694444444444,13.682725694444445,0)" xlink:href="#K"/><use transform="matrix(0.010850694444444444,0,0,0.010850694444444444,25.455729166666664,0)" xlink:href="#M"/><use transform="matrix(0.010850694444444444,0,0,0.010850694444444444,37.92317708333333,0)" xlink:href="#N"/><use transform="matrix(0.010850694444444444,0,0,0.010850694444444444,50.59678819444444,0)" xlink:href="#O"/><use transform="matrix(0.010850694444444444,0,0,0.010850694444444444,62.05512152777778,0)" xlink:href="#P"/><use transform="matrix(0.010850694444444444,0,0,0.010850694444444444,67.44791666666666,0)" xlink:href="#Q"/><use transform="matrix(0.010850694444444444,0,0,0.010850694444444444,74.4900173611111,0)" xlink:href="#N"/><use transform="matrix(0.010850694444444444,0,0,0.010850694444444444,87.16362847222221,0)" xlink:href="#R"/><use transform="matrix(0.010850694444444444,0,0,0.010850694444444444,94.87847222222221,0)" xlink:href="#S"/></g><path fill="#333" d="M589-945c-131 0-219 81-264 174V0H140v-1082h175l6 136c83-104 191-156 324-156 229 0 346 129 346 387V0H806v-716c-2-153-65-229-217-229" id="Y"/><path fill="#333" d="M277-555c0 244 77 420 297 424 127 2 249-93 255-210h175C980-127 805 20 574 20 258 20 81-222 92-562c11-319 164-533 481-540 237-5 426 165 431 392H829c-7-133-115-242-256-240-209 4-296 166-296 395" id="Z"/><g id="j"><use transform="matrix(0.010850694444444444,0,0,0.010850694444444444,0,0)" xlink:href="#U"/><use transform="matrix(0.010850694444444444,0,0,0.010850694444444444,6.043836805555555,0)" xlink:href="#Y"/><use transform="matrix(0.010850694444444444,0,0,0.010850694444444444,18.30512152777778,0)" xlink:href="#Q"/><use transform="matrix(0.010850694444444444,0,0,0.010850694444444444,25.56423611111111,0)" xlink:href="#K"/><use transform="matrix(0.010850694444444444,0,0,0.010850694444444444,37.33723958333333,0)" xlink:href="#R"/><use transform="matrix(0.010850694444444444,0,0,0.010850694444444444,44.42274305555555,0)" xlink:href="#H"/><use transform="matrix(0.010850694444444444,0,0,0.010850694444444444,56.51041666666666,0)" xlink:href="#Z"/><use transform="matrix(0.010850694444444444,0,0,0.010850694444444444,68.1423611111111,0)" xlink:href="#Q"/><use transform="matrix(0.010850694444444444,0,0,0.010850694444444444,75.18446180555554,0)" xlink:href="#N"/><use transform="matrix(0.010850694444444444,0,0,0.010850694444444444,87.85807291666666,0)" xlink:href="#R"/><use transform="matrix(0.010850694444444444,0,0,0.010850694444444444,95.37760416666666,0)" xlink:href="#O"/></g><path fill="#333" d="M688-137c238 0 323-102 359-325h193c-32 297-228 482-552 482-361 0-569-299-569-680 0-197 8-360 73-497 88-186 257-317 513-319 316-2 509 195 535 488h-193c-31-212-118-330-342-330-272 0-397 224-393 523v141c-3 282 115 517 376 517" id="aa"/><g id="k"><use transform="matrix(0.010850694444444444,0,0,0.010850694444444444,0,0)" xlink:href="#U"/><use transform="matrix(0.010850694444444444,0,0,0.010850694444444444,6.043836805555555,0)" xlink:href="#Y"/><use transform="matrix(0.010850694444444444,0,0,0.010850694444444444,18.30512152777778,0)" xlink:href="#Q"/><use transform="matrix(0.010850694444444444,0,0,0.010850694444444444,25.56423611111111,0)" xlink:href="#K"/><use transform="matrix(0.010850694444444444,0,0,0.010850694444444444,37.33723958333333,0)" xlink:href="#R"/><use transform="matrix(0.010850694444444444,0,0,0.010850694444444444,44.42274305555555,0)" xlink:href="#H"/><use transform="matrix(0.010850694444444444,0,0,0.010850694444444444,56.51041666666666,0)" xlink:href="#Z"/><use transform="matrix(0.010850694444444444,0,0,0.010850694444444444,68.1423611111111,0)" xlink:href="#Q"/><use transform="matrix(0.010850694444444444,0,0,0.010850694444444444,75.18446180555554,0)" xlink:href="#N"/><use transform="matrix(0.010850694444444444,0,0,0.010850694444444444,87.85807291666666,0)" xlink:href="#R"/><use transform="matrix(0.010850694444444444,0,0,0.010850694444444444,95.37760416666666,0)" xlink:href="#aa"/><use transform="matrix(0.010850694444444444,0,0,0.010850694444444444,109.84157986111111,0)" xlink:href="#N"/><use transform="matrix(0.010850694444444444,0,0,0.010850694444444444,122.51519097222221,0)" xlink:href="#Y"/><use transform="matrix(0.010850694444444444,0,0,0.010850694444444444,134.77647569444443,0)" xlink:href="#Q"/><use transform="matrix(0.010850694444444444,0,0,0.010850694444444444,142.03559027777777,0)" xlink:href="#R"/><use transform="matrix(0.010850694444444444,0,0,0.010850694444444444,149.12109375,0)" xlink:href="#H"/><use transform="matrix(0.010850694444444444,0,0,0.010850694444444444,161.20876736111111,0)" xlink:href="#Z"/><use transform="matrix(0.010850694444444444,0,0,0.010850694444444444,172.84071180555557,0)" xlink:href="#Q"/><use transform="matrix(0.010850694444444444,0,0,0.010850694444444444,180.0998263888889,0)" xlink:href="#T"/><use transform="matrix(0.010850694444444444,0,0,0.010850694444444444,191.3953993055556,0)" xlink:href="#U"/><use transform="matrix(0.010850694444444444,0,0,0.010850694444444444,197.43923611111111,0)" xlink:href="#V"/></g><path fill="#333" d="M1240-945c-141 0-250 95-250 227V0H804v-709c0-157-77-236-231-236-121 0-204 52-249 155V0H139v-1082h175l5 120c79-93 186-140 321-140 151 0 254 58 309 174 69-98 181-174 345-174 237 0 362 126 362 377V0h-185v-714c-2-159-67-231-231-231" id="ab"/><g id="l"><use transform="matrix(0.010850694444444444,0,0,0.010850694444444444,0,0)" xlink:href="#G"/><use transform="matrix(0.010850694444444444,0,0,0.010850694444444444,14.13845486111111,0)" xlink:href="#M"/><use transform="matrix(0.010850694444444444,0,0,0.010850694444444444,26.60590277777778,0)" xlink:href="#Y"/><use transform="matrix(0.010850694444444444,0,0,0.010850694444444444,38.8671875,0)" xlink:href="#U"/><use transform="matrix(0.010850694444444444,0,0,0.010850694444444444,44.91102430555556,0)" xlink:href="#ab"/><use transform="matrix(0.010850694444444444,0,0,0.010850694444444444,64.38802083333334,0)" xlink:href="#M"/><use transform="matrix(0.010850694444444444,0,0,0.010850694444444444,76.85546875000001,0)" xlink:href="#I"/></g><path fill="#333" d="M1222-777c17 480-206 763-650 777H169v-1456h411c408 9 627 269 642 679zm-190 4c3-312-149-522-447-525H361v1141h202c308 0 473-209 469-531v-85" id="ac"/><g id="m"><use transform="matrix(0.010850694444444444,0,0,0.010850694444444444,0,0)" xlink:href="#ac"/><use transform="matrix(0.010850694444444444,0,0,0.010850694444444444,14.572482638888888,0)" xlink:href="#N"/><use transform="matrix(0.010850694444444444,0,0,0.010850694444444444,27.24609375,0)" xlink:href="#ab"/><use transform="matrix(0.010850694444444444,0,0,0.010850694444444444,46.72309027777778,0)" xlink:href="#H"/><use transform="matrix(0.010850694444444444,0,0,0.010850694444444444,58.810763888888886,0)" xlink:href="#P"/><use transform="matrix(0.010850694444444444,0,0,0.010850694444444444,64.20355902777777,0)" xlink:href="#Y"/><use transform="matrix(0.010850694444444444,0,0,0.010850694444444444,76.46484375,0)" xlink:href="#U"/><use transform="matrix(0.010850694444444444,0,0,0.010850694444444444,82.50868055555556,0)" xlink:href="#Y"/><use transform="matrix(0.010850694444444444,0,0,0.010850694444444444,94.76996527777777,0)" xlink:href="#Q"/><use transform="matrix(0.010850694444444444,0,0,0.010850694444444444,102.02907986111111,0)" xlink:href="#K"/><use transform="matrix(0.010850694444444444,0,0,0.010850694444444444,113.80208333333331,0)" xlink:href="#R"/><use transform="matrix(0.010850694444444444,0,0,0.010850694444444444,120.88758680555556,0)" xlink:href="#H"/><use transform="matrix(0.010850694444444444,0,0,0.010850694444444444,132.97526041666666,0)" xlink:href="#Z"/><use transform="matrix(0.010850694444444444,0,0,0.010850694444444444,144.60720486111111,0)" xlink:href="#Q"/><use transform="matrix(0.010850694444444444,0,0,0.010850694444444444,151.64930555555557,0)" xlink:href="#N"/><use transform="matrix(0.010850694444444444,0,0,0.010850694444444444,164.32291666666669,0)" xlink:href="#R"/><use transform="matrix(0.010850694444444444,0,0,0.010850694444444444,171.84244791666669,0)" xlink:href="#O"/></g><g id="n"><use transform="matrix(0.010850694444444444,0,0,0.010850694444444444,0,0)" xlink:href="#ac"/><use transform="matrix(0.010850694444444444,0,0,0.010850694444444444,14.572482638888888,0)" xlink:href="#N"/><use transform="matrix(0.010850694444444444,0,0,0.010850694444444444,27.24609375,0)" xlink:href="#ab"/><use transform="matrix(0.010850694444444444,0,0,0.010850694444444444,46.72309027777778,0)" xlink:href="#H"/><use transform="matrix(0.010850694444444444,0,0,0.010850694444444444,58.810763888888886,0)" xlink:href="#P"/><use transform="matrix(0.010850694444444444,0,0,0.010850694444444444,64.20355902777777,0)" xlink:href="#Y"/><use transform="matrix(0.010850694444444444,0,0,0.010850694444444444,76.46484375,0)" xlink:href="#U"/><use transform="matrix(0.010850694444444444,0,0,0.010850694444444444,82.50868055555556,0)" xlink:href="#Y"/><use transform="matrix(0.010850694444444444,0,0,0.010850694444444444,94.76996527777777,0)" xlink:href="#Q"/><use transform="matrix(0.010850694444444444,0,0,0.010850694444444444,102.02907986111111,0)" xlink:href="#K"/><use transform="matrix(0.010850694444444444,0,0,0.010850694444444444,113.80208333333331,0)" xlink:href="#R"/><use transform="matrix(0.010850694444444444,0,0,0.010850694444444444,120.88758680555556,0)" xlink:href="#H"/><use transform="matrix(0.010850694444444444,0,0,0.010850694444444444,132.97526041666666,0)" xlink:href="#Z"/><use transform="matrix(0.010850694444444444,0,0,0.010850694444444444,144.60720486111111,0)" xlink:href="#Q"/><use transform="matrix(0.010850694444444444,0,0,0.010850694444444444,151.64930555555557,0)" xlink:href="#N"/><use transform="matrix(0.010850694444444444,0,0,0.010850694444444444,164.32291666666669,0)" xlink:href="#R"/></g><g id="o"><use transform="matrix(0.010850694444444444,0,0,0.010850694444444444,0,0)" xlink:href="#aa"/><use transform="matrix(0.010850694444444444,0,0,0.010850694444444444,14.463975694444445,0)" xlink:href="#N"/><use transform="matrix(0.010850694444444444,0,0,0.010850694444444444,27.13758680555556,0)" xlink:href="#Y"/><use transform="matrix(0.010850694444444444,0,0,0.010850694444444444,39.39887152777778,0)" xlink:href="#Q"/><use transform="matrix(0.010850694444444444,0,0,0.010850694444444444,46.65798611111111,0)" xlink:href="#R"/><use transform="matrix(0.010850694444444444,0,0,0.010850694444444444,53.74348958333333,0)" xlink:href="#H"/><use transform="matrix(0.010850694444444444,0,0,0.010850694444444444,65.83116319444444,0)" xlink:href="#Z"/><use transform="matrix(0.010850694444444444,0,0,0.010850694444444444,77.46310763888889,0)" xlink:href="#Q"/><use transform="matrix(0.010850694444444444,0,0,0.010850694444444444,84.72222222222221,0)" xlink:href="#T"/><use transform="matrix(0.010850694444444444,0,0,0.010850694444444444,96.01779513888889,0)" xlink:href="#U"/><use transform="matrix(0.010850694444444444,0,0,0.010850694444444444,102.06163194444444,0)" xlink:href="#V"/></g><path fill="#333" d="M973-380H363L226 0H28l556-1456h168L1309 0h-197zM421-538h495l-248-681" id="ad"/><g id="p"><use transform="matrix(0.010850694444444444,0,0,0.010850694444444444,0,0)" xlink:href="#ad"/><use transform="matrix(0.010850694444444444,0,0,0.010850694444444444,14.496527777777777,0)" xlink:href="#Z"/><use transform="matrix(0.010850694444444444,0,0,0.010850694444444444,26.12847222222222,0)" xlink:href="#Z"/><use transform="matrix(0.010850694444444444,0,0,0.010850694444444444,37.760416666666664,0)" xlink:href="#N"/><use transform="matrix(0.010850694444444444,0,0,0.010850694444444444,50.43402777777778,0)" xlink:href="#J"/><use transform="matrix(0.010850694444444444,0,0,0.010850694444444444,62.68446180555555,0)" xlink:href="#Y"/><use transform="matrix(0.010850694444444444,0,0,0.010850694444444444,74.94574652777777,0)" xlink:href="#Q"/><use transform="matrix(0.010850694444444444,0,0,0.010850694444444444,82.2048611111111,0)" xlink:href="#U"/><use transform="matrix(0.010850694444444444,0,0,0.010850694444444444,88.24869791666666,0)" xlink:href="#ab"/><use transform="matrix(0.010850694444444444,0,0,0.010850694444444444,107.72569444444441,0)" xlink:href="#M"/><use transform="matrix(0.010850694444444444,0,0,0.010850694444444444,120.1931423611111,0)" xlink:href="#I"/></g><path fill="#333" d="M1216-1011c-1 297-202 441-512 441H361V0H169v-1456h537c297-6 510 164 510 445zm-192 2c1-178-126-288-307-289H361v571h345c196 1 318-92 318-282" id="ae"/><path fill="#333" d="M1288 0h-193L362-1122V0H169v-1456h193l735 1127v-1127h191V0" id="af"/><g id="q"><use transform="matrix(0.010850694444444444,0,0,0.010850694444444444,0,0)" xlink:href="#G"/><use transform="matrix(0.010850694444444444,0,0,0.010850694444444444,14.13845486111111,0)" xlink:href="#ae"/><use transform="matrix(0.010850694444444444,0,0,0.010850694444444444,28.157552083333332,0)" xlink:href="#af"/><use transform="matrix(0.010850694444444444,0,0,0.010850694444444444,43.99956597222222,0)" xlink:href="#T"/><use transform="matrix(0.010850694444444444,0,0,0.010850694444444444,55.295138888888886,0)" xlink:href="#U"/><use transform="matrix(0.010850694444444444,0,0,0.010850694444444444,61.33897569444444,0)" xlink:href="#V"/></g><g id="r"><use transform="matrix(0.010850694444444444,0,0,0.010850694444444444,0,0)" xlink:href="#ad"/><use transform="matrix(0.010850694444444444,0,0,0.010850694444444444,14.496527777777777,0)" xlink:href="#Z"/><use transform="matrix(0.010850694444444444,0,0,0.010850694444444444,26.12847222222222,0)" xlink:href="#Z"/><use transform="matrix(0.010850694444444444,0,0,0.010850694444444444,37.760416666666664,0)" xlink:href="#N"/><use transform="matrix(0.010850694444444444,0,0,0.010850694444444444,50.43402777777778,0)" xlink:href="#J"/><use transform="matrix(0.010850694444444444,0,0,0.010850694444444444,62.68446180555555,0)" xlink:href="#Y"/><use transform="matrix(0.010850694444444444,0,0,0.010850694444444444,74.94574652777777,0)" xlink:href="#Q"/><use transform="matrix(0.010850694444444444,0,0,0.010850694444444444,82.2048611111111,0)" xlink:href="#T"/><use transform="matrix(0.010850694444444444,0,0,0.010850694444444444,93.50043402777777,0)" xlink:href="#U"/><use transform="matrix(0.010850694444444444,0,0,0.010850694444444444,99.54427083333333,0)" xlink:href="#V"/></g><path fill="#333" d="M631-137c179 0 314-70 314-231 0-71-25-127-75-166s-141-77-272-115c-165-47-285-106-360-175s-112-154-112-255c0-245 231-397 495-397 206 0 369 89 449 218 43 68 65 142 65 223H942c0-184-129-283-321-283-172 0-299 76-301 236 0 59 26 109 76 150s135 78 256 113c205 59 345 116 436 256 35 53 50 119 50 193-2 256-231 398-507 390C333 12 90-129 80-422h193c0 187 160 285 358 285" id="ag"/><path fill="#333" d="M520 20C244 20 95-247 95-550c0-298 151-550 427-552 127 0 227 43 301 130v-564h185V0H838l-9-116C755-25 652 20 520 20zm48-965c-210 0-288 177-288 416 0 218 87 392 286 392 117 0 203-53 257-158v-497c-55-102-140-153-255-153" id="ah"/><path fill="#333" d="M442-501L326-380V0H141v-1536h185v929c135-169 291-317 436-475h225L566-630 1036 0H819" id="ai"/><g id="s"><use transform="matrix(0.010850694444444444,0,0,0.010850694444444444,0,0)" xlink:href="#G"/><use transform="matrix(0.010850694444444444,0,0,0.010850694444444444,14.13845486111111,0)" xlink:href="#M"/><use transform="matrix(0.010850694444444444,0,0,0.010850694444444444,26.60590277777778,0)" xlink:href="#Y"/><use transform="matrix(0.010850694444444444,0,0,0.010850694444444444,38.8671875,0)" xlink:href="#ag"/><use transform="matrix(0.010850694444444444,0,0,0.010850694444444444,52.05078125,0)" xlink:href="#ah"/><use transform="matrix(0.010850694444444444,0,0,0.010850694444444444,64.58333333333333,0)" xlink:href="#ai"/></g></defs></g></svg>